<svg width="16" height="16" viewBox="0 0 16 16" fill="none" xmlns="http://www.w3.org/2000/svg">
<path d="M16 8C16 12.4183 12.4183 16 8 16C3.58171 16 0 12.4183 0 8C0 3.58171 3.58171 0 8 0C12.4183 0 16 3.58171 16 8ZM11.4306 6.86032C11.5899 5.79584 10.7793 5.22358 9.67094 4.84184L10.0305 3.39984L9.15265 3.1811L8.80261 4.5851C8.57184 4.52758 8.33481 4.47335 8.09929 4.41961L8.45184 3.00639L7.57448 2.78765L7.21471 4.22913C7.02368 4.18561 6.83616 4.14261 6.65416 4.09739L6.65516 4.09287L5.44452 3.79061L5.211 4.7281C5.211 4.7281 5.86232 4.87735 5.84858 4.88658C6.20413 4.97532 6.26839 5.21058 6.25761 5.39706L5.84806 7.03981C5.87258 7.04606 5.90432 7.05506 5.93932 7.06906C5.91006 7.06181 5.87881 7.05381 5.84655 7.04606L5.27248 9.34729C5.22897 9.45529 5.11871 9.61729 4.87019 9.55581C4.87894 9.56855 4.23213 9.39655 4.23213 9.39655L3.79632 10.4013L4.93871 10.686C5.15123 10.7393 5.35952 10.795 5.56452 10.8475L5.20123 12.306L6.07806 12.5247L6.43784 11.0817C6.67037 11.1448 6.90358 11.2053 7.13742 11.2633L6.77887 12.6995L7.65671 12.9182L8.02 11.4625C9.5169 11.7457 10.6425 11.6315 11.1163 10.2777C11.4981 9.18774 11.0973 8.559 10.3097 8.149C10.8833 8.01681 11.3154 7.63958 11.4306 6.86032ZM9.4249 9.67255C9.15361 10.7625 7.31819 10.1733 6.72313 10.0255L7.20519 8.09332C7.80023 8.24181 9.70842 8.53581 9.4249 9.67255ZM9.69642 6.84458C9.4489 7.83606 7.92123 7.33232 7.42568 7.20884L7.86271 5.45635C8.35829 5.57984 9.95419 5.81032 9.69642 6.84458Z" fill="black"/>
</svg>
