<svg width="11" height="12" viewBox="0 0 11 12" fill="none" xmlns="http://www.w3.org/2000/svg">
<path d="M3.5625 0.5625C3.5625 0.250781 3.31172 0 3 0C2.68828 0 2.4375 0.250781 2.4375 0.5625V1.5H1.5C0.672656 1.5 0 2.17266 0 3V3.375V4.5V10.5C0 11.3273 0.672656 12 1.5 12H9C9.82734 12 10.5 11.3273 10.5 10.5V4.5V3.375V3C10.5 2.17266 9.82734 1.5 9 1.5H8.0625V0.5625C8.0625 0.250781 7.81172 0 7.5 0C7.18828 0 6.9375 0.250781 6.9375 0.5625V1.5H3.5625V0.5625ZM1.125 4.5H3V5.8125H1.125V4.5ZM1.125 6.9375H3V8.4375H1.125V6.9375ZM4.125 6.9375H6.375V8.4375H4.125V6.9375ZM7.5 6.9375H9.375V8.4375H7.5V6.9375ZM9.375 5.8125H7.5V4.5H9.375V5.8125ZM9.375 9.5625V10.5C9.375 10.7063 9.20625 10.875 9 10.875H7.5V9.5625H9.375ZM6.375 9.5625V10.875H4.125V9.5625H6.375ZM3 9.5625V10.875H1.5C1.29375 10.875 1.125 10.7063 1.125 10.5V9.5625H3ZM6.375 5.8125H4.125V4.5H6.375V5.8125Z" fill="white"/>
</svg>
